<svg width="290" height="312" viewBox="0 0 290 312" fill="none" xmlns="http://www.w3.org/2000/svg">
<path d="M148.978 200.001C163.27 183.783 168.257 161.693 162.316 140.91C156.376 120.127 140.467 104.011 119.763 97.7979L69.8722 82.8225C61.5956 80.3376 52.9215 80.5789 44.7942 83.5172C36.665 86.456 29.8457 91.8182 25.0675 99.0243C20.2961 106.233 18.0199 114.606 18.4839 123.239C18.948 131.872 22.1137 139.953 27.6345 146.607L28.0065 147.052C41.7307 163.845 47.9102 185.751 44.9702 207.253C44.2126 212.8 44.6094 218.334 46.1153 223.601C46.934 226.466 48.0828 229.254 49.5492 231.922C53.716 239.497 60.0738 245.402 67.9365 249.001C75.7962 252.597 84.4217 253.546 92.8785 251.746C101.335 249.946 108.824 245.567 114.541 239.082L148.978 200.001Z" fill="white" fill-opacity="0.03"/>
<path d="M114.172 78.0341C119.559 85.192 127.785 89.4484 137.334 90.0183C146.422 90.5619 155.677 87.6593 163.395 81.8427C171.107 76.0259 176.445 67.9293 178.428 59.0431C180.51 49.7091 178.688 40.6291 173.299 33.4862C162.474 19.1112 140.398 17.4047 124.08 29.687C111.097 39.4832 105.637 55.2364 109.429 68.5013C110.397 71.8884 111.969 75.1132 114.172 78.0341Z" fill="white" fill-opacity="0.03"/>
<path d="M162.199 121.036C167.97 141.226 191.379 152.302 214.381 145.727C237.388 139.15 251.41 117.374 245.639 97.1849C239.869 76.9975 216.457 65.9241 193.449 72.5009C170.447 79.076 156.428 100.849 162.199 121.036Z" fill="white" fill-opacity="0.03"/>
<path d="M170.026 187.201L170.026 187.203C169.883 190.603 170.296 193.912 171.198 197.067C175.407 211.791 190.225 223.076 208.26 223.844C218.642 224.287 228.607 221.214 236.317 215.192C244.39 208.889 249.059 200.151 249.466 190.584C249.872 181.015 245.959 171.911 238.451 164.946C231.279 158.293 221.61 154.387 211.23 153.948C189.331 153.018 170.847 167.935 170.026 187.201Z" fill="white" fill-opacity="0.03"/>
<path d="M196.933 262.914L196.937 262.906C203.242 246.044 192.832 226.495 173.725 219.328C154.614 212.174 133.925 220.061 127.606 236.905C125.299 243.049 125.216 249.553 126.969 255.684C130.024 266.37 138.656 275.929 150.811 280.494C169.921 287.646 190.611 279.761 196.933 262.914Z" fill="white" fill-opacity="0.03"/>
</svg>
