<svg width="332" height="341" viewBox="0 0 332 341" fill="none" xmlns="http://www.w3.org/2000/svg">
<path d="M196.84 138.57C175.284 138.088 155.226 148.477 143.189 166.364C131.151 184.25 129.079 206.743 137.643 226.53L158.277 274.214C161.699 282.125 167.457 288.587 174.921 292.899C182.387 297.212 190.859 298.969 199.427 297.984C207.992 296.992 215.843 293.348 222.13 287.447C228.418 281.545 232.549 273.938 234.078 265.45L234.178 264.88C238.171 243.62 250.911 224.83 269.205 213.256C273.923 210.269 277.889 206.411 280.941 201.877C282.599 199.412 283.988 196.744 285.082 193.911C288.183 185.865 288.603 177.22 286.296 168.909C283.989 160.602 279.17 153.412 272.363 148.117C265.555 142.823 257.402 139.923 248.782 139.729L196.84 138.57Z" fill="white" fill-opacity="0.03"/>
<path d="M126.157 243.491C128.157 234.782 126.118 225.772 120.417 218.12C114.992 210.838 106.831 205.643 97.4341 203.493C88.0411 201.347 78.4341 202.477 70.3803 206.674C61.9218 211.084 56.1656 218.308 54.179 227.009C50.1689 244.505 63.0523 262.443 82.9079 266.999C98.7234 270.609 114.25 264.651 121.933 253.235C123.895 250.32 125.345 247.049 126.157 243.491Z" fill="white" fill-opacity="0.03"/>
<path d="M128.103 179.22C139.797 161.844 133.205 136.869 113.408 123.546C93.6067 110.22 67.984 113.515 56.2902 130.891C44.5975 148.265 51.1936 173.241 70.9951 186.567C90.7916 199.89 116.41 196.594 128.103 179.22Z" fill="white" fill-opacity="0.03"/>
<path d="M173.549 130.734L173.55 130.732C176.236 128.656 178.495 126.215 180.323 123.499C188.851 110.828 187.939 92.2713 176.936 78.0199C170.603 69.815 161.855 64.1873 152.306 62.1746C142.311 60.0659 132.644 62.1189 125.084 67.9561C117.523 73.7949 113.093 82.6296 112.604 92.8331C112.136 102.58 115.369 112.466 121.704 120.667C135.067 137.971 158.324 142.487 173.549 130.734Z" fill="white" fill-opacity="0.03"/>
<path d="M214.02 61.5558L214.012 61.5574C197.096 67.5831 188.872 88.0858 195.682 107.268C202.505 126.444 221.816 137.16 238.726 131.157C244.895 128.969 249.91 124.853 253.462 119.576C259.651 110.379 261.396 97.6512 257.069 85.4453C250.245 66.2705 230.935 55.5532 214.02 61.5558Z" fill="white" fill-opacity="0.03"/>
</svg>
