<svg width="100" height="20" viewBox="0 0 100 20" fill="none" xmlns="http://www.w3.org/2000/svg">
<path d="M10.1975 0.607926C10.1354 0.416577 9.86465 0.416577 9.80247 0.607926L7.80149 6.76632C7.77369 6.85189 7.69394 6.90983 7.60396 6.90983H1.12865C0.92745 6.90983 0.843796 7.16729 1.00657 7.28555L6.24521 11.0916C6.318 11.1445 6.34846 11.2383 6.32066 11.3239L4.31967 17.4822C4.2575 17.6736 4.47651 17.8327 4.63928 17.7145L9.87792 13.9084C9.95072 13.8555 10.0493 13.8555 10.1221 13.9084L15.3607 17.7145C15.5235 17.8327 15.7425 17.6736 15.6803 17.4822L13.6793 11.3239C13.6515 11.2383 13.682 11.1445 13.7548 11.0916L18.9934 7.28555C19.1562 7.16729 19.0725 6.90983 18.8714 6.90983H12.396C12.3061 6.90983 12.2263 6.85189 12.1985 6.76632L10.1975 0.607926Z" fill="#EAC708"/>
<path d="M30.1975 0.607926C30.1354 0.416577 29.8646 0.416577 29.8025 0.607926L27.8015 6.76632C27.7737 6.85189 27.6939 6.90983 27.604 6.90983H21.1286C20.9275 6.90983 20.8438 7.16729 21.0066 7.28555L26.2452 11.0916C26.318 11.1445 26.3485 11.2383 26.3207 11.3239L24.3197 17.4822C24.2575 17.6736 24.4765 17.8327 24.6393 17.7145L29.8779 13.9084C29.9507 13.8555 30.0493 13.8555 30.1221 13.9084L35.3607 17.7145C35.5235 17.8327 35.7425 17.6736 35.6803 17.4822L33.6793 11.3239C33.6515 11.2383 33.682 11.1445 33.7548 11.0916L38.9934 7.28555C39.1562 7.16729 39.0725 6.90983 38.8714 6.90983H32.396C32.3061 6.90983 32.2263 6.85189 32.1985 6.76632L30.1975 0.607926Z" fill="#EAC708"/>
<path d="M50.1975 0.607926C50.1354 0.416577 49.8646 0.416577 49.8025 0.607926L47.8015 6.76632C47.7737 6.85189 47.6939 6.90983 47.604 6.90983H41.1286C40.9275 6.90983 40.8438 7.16729 41.0066 7.28555L46.2452 11.0916C46.318 11.1445 46.3485 11.2383 46.3207 11.3239L44.3197 17.4822C44.2575 17.6736 44.4765 17.8327 44.6393 17.7145L49.8779 13.9084C49.9507 13.8555 50.0493 13.8555 50.1221 13.9084L55.3607 17.7145C55.5235 17.8327 55.7425 17.6736 55.6803 17.4822L53.6793 11.3239C53.6515 11.2383 53.682 11.1445 53.7548 11.0916L58.9934 7.28555C59.1562 7.16729 59.0725 6.90983 58.8714 6.90983H52.396C52.3061 6.90983 52.2263 6.85189 52.1985 6.76632L50.1975 0.607926Z" fill="#EAC708"/>
<path d="M70.1975 0.607926C70.1354 0.416577 69.8646 0.416577 69.8025 0.607926L67.8015 6.76632C67.7737 6.85189 67.6939 6.90983 67.604 6.90983H61.1286C60.9275 6.90983 60.8438 7.16729 61.0066 7.28555L66.2452 11.0916C66.318 11.1445 66.3485 11.2383 66.3207 11.3239L64.3197 17.4822C64.2575 17.6736 64.4765 17.8327 64.6393 17.7145L69.8779 13.9084C69.9507 13.8555 70.0493 13.8555 70.1221 13.9084L75.3607 17.7145C75.5235 17.8327 75.7425 17.6736 75.6803 17.4822L73.6793 11.3239C73.6515 11.2383 73.682 11.1445 73.7548 11.0916L78.9934 7.28555C79.1562 7.16729 79.0725 6.90983 78.8714 6.90983H72.396C72.3061 6.90983 72.2263 6.85189 72.1985 6.76632L70.1975 0.607926Z" fill="#EAC708"/>
<path d="M90.1975 0.607926C90.1354 0.416577 89.8646 0.416577 89.8025 0.607926L87.8015 6.76632C87.7737 6.85189 87.6939 6.90983 87.604 6.90983H81.1286C80.9275 6.90983 80.8438 7.16729 81.0066 7.28555L86.2452 11.0916C86.318 11.1445 86.3485 11.2383 86.3207 11.3239L84.3197 17.4822C84.2575 17.6736 84.4765 17.8327 84.6393 17.7145L89.8779 13.9084C89.9507 13.8555 90.0493 13.8555 90.1221 13.9084L95.3607 17.7145C95.5235 17.8327 95.7425 17.6736 95.6803 17.4822L93.6793 11.3239C93.6515 11.2383 93.682 11.1445 93.7548 11.0916L98.9934 7.28555C99.1562 7.16729 99.0725 6.90983 98.8714 6.90983H92.396C92.3061 6.90983 92.2263 6.85189 92.1985 6.76632L90.1975 0.607926Z" fill="#EAC708"/>
</svg>
