<svg width="83" height="58" viewBox="0 0 83 58" fill="none" xmlns="http://www.w3.org/2000/svg">
<path d="M56.5166 4.62369C53.9242 0.179294 48.2197 -1.32195 43.7754 1.27055C42.7009 1.89737 41.7627 2.73304 41.0163 3.7283L40.5868 4.30075L40.1574 3.72845C38.3934 1.38794 35.6351 0.00862993 32.7042 0.00152195H32.4822C29.2969 0.0013754 26.3323 1.62888 24.6225 4.31643C23.562 5.98095 22.9991 7.9138 23 9.88748V11.5824C22.9917 16.6271 25.5347 21.3339 29.7587 24.092L30.7592 24.7475L34.8705 27.4408L40.2657 30.9755C40.4616 31.1038 40.7152 31.1031 40.9105 30.9738L51.4759 23.9767C55.6634 21.2109 58.1801 16.5253 58.1735 11.5069V10.7522C58.173 8.59874 57.6013 6.484 56.5166 4.62369ZM37.1313 27.23L37.3472 27.6619L32.6354 24.5751L31.4017 23.7668L31.066 23.547L34.04 19.086C34.1042 18.9897 34.1384 18.8765 34.1383 18.7607V16.9258C34.1383 16.8875 34.139 16.8485 34.1401 16.8111C34.1735 16.0861 34.4497 15.3933 34.9242 14.8442L35.0187 14.7331L35.3283 15.9715C35.3935 16.2326 35.628 16.4158 35.897 16.4158H37.3007C37.6929 16.4155 38.0592 16.6117 38.2761 16.9384C38.6763 17.5393 39.2949 17.9603 40.0006 18.1122V18.7607C39.9998 19.4079 39.4753 19.9324 38.8281 19.9332C38.5044 19.9332 38.2419 20.1957 38.2419 20.5194V22.6518C38.2425 23.057 38.1224 23.4533 37.897 23.7901L37.1678 24.8841C37.1036 24.9804 37.0694 25.0935 37.0694 25.2092V26.9679C37.0694 27.0589 37.0906 27.1487 37.1313 27.2301V27.23ZM39.4143 29.0163L38.8281 28.6323V28.1403C38.8281 28.0492 38.8069 27.9593 38.766 27.8778L38.7598 27.8652L39.4143 27.2107V29.0163ZM44.1041 27.4525L42.9317 28.2293V24.9161L44.1041 24.0368V27.4525ZM45.1996 20.1123C45.1572 20.9651 44.8368 21.7805 44.2873 22.434L41.9937 24.154C41.8461 24.2647 41.7592 24.4385 41.7592 24.623V29.0055L40.5868 29.7823V25.7954C40.5868 25.4717 40.3244 25.2092 40.0006 25.2092C39.8451 25.2092 39.6959 25.271 39.586 25.3809L38.2419 26.725V25.3867L38.8721 24.441C39.2264 23.9116 39.4151 23.2888 39.4143 22.6518V21.0314C40.4489 20.7628 41.1717 19.8296 41.173 18.7607V17.5883C41.173 17.2645 40.9105 17.0021 40.5868 17.0021C40.0502 17.0025 39.549 16.7344 39.2515 16.2879C39.0097 15.9243 38.671 15.6356 38.2737 15.4544L39.1715 14.5566L39.1521 14.5952L41.1885 15.6138C42.2445 16.1401 43.408 16.4146 44.5878 16.4158H44.842L45.1384 18.6362C45.2038 19.1253 45.2243 19.6194 45.1996 20.1123ZM41.173 10.5536V12.4581C41.1728 12.7011 40.9757 12.8982 40.7327 12.8985H40.0006V11.8521C39.9967 10.4245 40.5642 9.0546 41.5765 8.04798C41.8493 7.77575 42.2188 7.62267 42.6041 7.62245H43.8733C44.2414 7.6215 44.5945 7.76784 44.854 8.02892L46.0345 9.20944C46.1444 9.31935 46.2935 9.38113 46.449 9.38113H47.6215V10.2605C47.621 10.7459 47.2275 11.1393 46.7421 11.1398H45.2766C44.9528 11.1398 44.6904 11.4023 44.6904 11.726V15.2434H44.5878C43.59 15.2422 42.6061 15.0099 41.7132 14.5648L40.7252 14.0709H40.7325C41.6229 14.07 42.3444 13.3484 42.3455 12.4581V10.5536H41.173ZM57.0011 11.5069C57.007 16.132 54.6876 20.4502 50.8284 22.9991L45.2766 26.676V23.0753C45.9354 22.245 46.318 21.2292 46.3706 20.1705C46.3986 19.6063 46.3751 19.0408 46.3003 18.481L45.8628 15.2045V12.3123H46.7421C47.8748 12.3109 48.7926 11.3931 48.7939 10.2605V8.7949C48.7939 8.47116 48.5314 8.20868 48.2077 8.20868H46.6919L45.6831 7.19978C45.2042 6.7182 44.5524 6.44817 43.8733 6.45H42.6041C41.9078 6.45029 41.2401 6.72677 40.7475 7.21891C39.5146 8.445 38.8234 10.1133 38.8281 11.8521V13.2419L36.8266 15.2434H36.3547L35.8795 13.3425C35.8009 13.0285 35.4827 12.8374 35.1686 12.916C35.0499 12.9457 34.9435 13.0117 34.8642 13.1049L34.0308 14.0849C33.3851 14.8359 33.0108 15.7823 32.9683 16.7717C32.9666 16.823 32.9657 16.8748 32.9657 16.9256V18.583L31.3294 21.0378C30.3399 20.2966 29.4482 19.4334 28.6753 18.4684L28.1476 17.8081C27.9453 17.5553 27.5762 17.5144 27.3234 17.7167C27.0706 17.9191 27.0297 18.2881 27.2321 18.5409L27.7597 19.2009C28.6079 20.26 29.5888 21.2057 30.6782 22.0148L30.0881 22.8998C26.3765 20.3285 24.165 16.0977 24.1725 11.5824V9.88748C24.1716 8.13679 24.6709 6.4223 25.6117 4.94589C27.1063 2.59659 29.6977 1.17383 32.4822 1.17397H32.7042C35.2663 1.1802 37.6775 2.38599 39.2195 4.43199L40.1178 5.62928C40.3121 5.88832 40.6795 5.94079 40.9385 5.74653C40.9829 5.71319 41.0224 5.67369 41.0558 5.62928L41.9541 4.43192C44.6526 0.833596 49.7572 0.104185 53.3554 2.80265C54.2254 3.45505 54.9559 4.2751 55.5039 5.21438C56.484 6.89539 57.0006 8.80626 57.0011 10.7522V11.5069Z" fill="#3DA9FC"/>
<path d="M42.9317 8.79486H44.1042V9.96731H42.9317V8.79486Z" fill="#3DA9FC"/>
<path d="M36.4832 17.5883H37.6556V18.7607H36.4832V17.5883Z" fill="#3DA9FC"/>
<path d="M53.8501 17.7168C53.5974 17.5144 53.2285 17.5553 53.0261 17.808C53.026 17.8081 53.026 17.8082 53.026 17.8082L52.4984 18.4681C51.345 19.912 49.9281 21.124 48.3229 22.0395L46.7447 22.9414C46.4633 23.1015 46.3651 23.4594 46.5253 23.7408C46.6854 24.0222 47.0433 24.1205 47.3247 23.9603C47.3253 23.96 47.3259 23.9596 47.3264 23.9593L48.9046 23.0576C50.6381 22.0687 52.1682 20.7598 53.4136 19.2004L53.9412 18.5405C54.1434 18.2878 54.1027 17.9191 53.8501 17.7168Z" fill="#094067"/>
<path d="M55.2424 11.726C54.9187 11.726 54.6562 11.9885 54.6562 12.3122V12.5052C54.6565 13.4792 54.4994 14.4469 54.1911 15.3709L54.1001 15.6442C53.9947 15.9504 54.1574 16.2839 54.4635 16.3893C54.7697 16.4947 55.1032 16.332 55.2086 16.0258C55.2099 16.0222 55.211 16.0186 55.2122 16.015L55.3034 15.7417C55.6515 14.6981 55.8288 13.6052 55.8285 12.5052V12.3122C55.8286 11.9885 55.5662 11.726 55.2424 11.726Z" fill="#094067"/>
<path d="M55.2424 8.79486C54.9187 8.79486 54.6562 9.05734 54.6562 9.38109V9.96731C54.6562 10.2911 54.9187 10.5535 55.2424 10.5535C55.5661 10.5535 55.8286 10.2911 55.8286 9.96731V9.38109C55.8286 9.05734 55.5662 8.79486 55.2424 8.79486Z" fill="#094067"/>
<path d="M26.9824 15.3709C26.6741 14.447 26.5171 13.4793 26.5174 12.5052V12.3122C26.5174 11.9885 26.2549 11.726 25.9312 11.726C25.6074 11.726 25.3449 11.9885 25.3449 12.3122V12.5052C25.3446 13.6052 25.522 14.6981 25.8701 15.7417L25.9613 16.0149C26.0606 16.323 26.391 16.4923 26.6991 16.393C27.0072 16.2936 27.1765 15.9632 27.0771 15.6551C27.076 15.6515 27.0747 15.6478 27.0735 15.6442L26.9824 15.3709Z" fill="#094067"/>
<path d="M11.3379 46.0391C11.3379 47.5299 10.8496 48.6725 9.87305 49.4668C8.89648 50.2611 7.50651 50.6582 5.70312 50.6582H4.21875V56H1.88477V41.7227H5.99609C7.77995 41.7227 9.11458 42.0872 10 42.8164C10.8919 43.5456 11.3379 44.6198 11.3379 46.0391ZM4.21875 48.6953H5.45898C6.6569 48.6953 7.53581 48.487 8.0957 48.0703C8.6556 47.6536 8.93555 47.0026 8.93555 46.1172C8.93555 45.2969 8.6849 44.6849 8.18359 44.2812C7.68229 43.8776 6.90104 43.6758 5.83984 43.6758H4.21875V48.6953ZM18.6621 56.1953C16.9824 56.1953 15.6673 55.707 14.7168 54.7305C13.7728 53.7474 13.3008 52.3965 13.3008 50.6777C13.3008 48.9134 13.7402 47.5267 14.6191 46.5176C15.498 45.5085 16.7057 45.0039 18.2422 45.0039C19.668 45.0039 20.7943 45.4368 21.6211 46.3027C22.4479 47.1686 22.8613 48.36 22.8613 49.877V51.1172H15.6641C15.6966 52.1654 15.9798 52.9727 16.5137 53.5391C17.0475 54.099 17.7995 54.3789 18.7695 54.3789C19.4076 54.3789 20 54.3203 20.5469 54.2031C21.1003 54.0794 21.6927 53.8776 22.3242 53.5977V55.4629C21.7643 55.7298 21.1979 55.9186 20.625 56.0293C20.0521 56.14 19.3978 56.1953 18.6621 56.1953ZM18.2422 46.7422C17.513 46.7422 16.9271 46.9733 16.4844 47.4355C16.0482 47.8978 15.7878 48.5716 15.7031 49.457H20.6055C20.5924 48.5651 20.3776 47.8913 19.9609 47.4355C19.5443 46.9733 18.9714 46.7422 18.2422 46.7422ZM29.4922 54.3398C30.0521 54.3398 30.612 54.252 31.1719 54.0762V55.8047C30.918 55.9154 30.5892 56.0065 30.1855 56.0781C29.7884 56.1562 29.375 56.1953 28.9453 56.1953C26.7708 56.1953 25.6836 55.0495 25.6836 52.7578V46.9375H24.209V45.9219L25.791 45.082L26.5723 42.7969H27.9883V45.1992H31.0645V46.9375H27.9883V52.7188C27.9883 53.2721 28.125 53.6823 28.3984 53.9492C28.6784 54.2096 29.043 54.3398 29.4922 54.3398ZM44.8535 43.5195C43.5124 43.5195 42.4577 43.9948 41.6895 44.9453C40.9212 45.8958 40.5371 47.2077 40.5371 48.8809C40.5371 50.6322 40.9049 51.957 41.6406 52.8555C42.3828 53.7539 43.4538 54.2031 44.8535 54.2031C45.459 54.2031 46.0449 54.1445 46.6113 54.0273C47.1777 53.9036 47.7669 53.7474 48.3789 53.5586V55.5605C47.2591 55.9837 45.9896 56.1953 44.5703 56.1953C42.4805 56.1953 40.8757 55.5638 39.7559 54.3008C38.6361 53.0312 38.0762 51.2181 38.0762 48.8613C38.0762 47.377 38.3464 46.0781 38.8867 44.9648C39.4336 43.8516 40.2214 42.9987 41.25 42.4062C42.2786 41.8138 43.4863 41.5176 44.873 41.5176C46.3314 41.5176 47.679 41.8236 48.916 42.4355L48.0762 44.3789C47.5944 44.151 47.0833 43.9525 46.543 43.7832C46.0091 43.6074 45.446 43.5195 44.8535 43.5195ZM57.9688 56L57.5098 54.4961H57.4316C56.9108 55.1536 56.3867 55.6029 55.8594 55.8438C55.332 56.0781 54.6549 56.1953 53.8281 56.1953C52.7669 56.1953 51.9368 55.9089 51.3379 55.3359C50.7454 54.763 50.4492 53.9525 50.4492 52.9043C50.4492 51.791 50.8626 50.9512 51.6895 50.3848C52.5163 49.8184 53.776 49.5091 55.4688 49.457L57.334 49.3984V48.8223C57.334 48.1322 57.1712 47.6178 56.8457 47.2793C56.5267 46.9342 56.0286 46.7617 55.3516 46.7617C54.7982 46.7617 54.2676 46.8431 53.7598 47.0059C53.252 47.1686 52.7637 47.3607 52.2949 47.582L51.5527 45.9414C52.1387 45.6354 52.7799 45.4043 53.4766 45.248C54.1732 45.0853 54.8307 45.0039 55.4492 45.0039C56.8229 45.0039 57.8581 45.3034 58.5547 45.9023C59.2578 46.5013 59.6094 47.4421 59.6094 48.7246V56H57.9688ZM54.5508 54.4375C55.3841 54.4375 56.0514 54.2064 56.5527 53.7441C57.0605 53.2754 57.3145 52.6211 57.3145 51.7812V50.8438L55.9277 50.9023C54.847 50.9414 54.0592 51.1237 53.5645 51.4492C53.0762 51.7682 52.832 52.2598 52.832 52.9238C52.832 53.4056 52.9753 53.7799 53.2617 54.0469C53.5482 54.3073 53.9779 54.4375 54.5508 54.4375ZM68.291 45.0039C68.7533 45.0039 69.1341 45.0365 69.4336 45.1016L69.209 47.2402C68.8835 47.1621 68.5449 47.123 68.1934 47.123C67.2754 47.123 66.5299 47.4225 65.957 48.0215C65.3906 48.6204 65.1074 49.3984 65.1074 50.3555V56H62.8125V45.1992H64.6094L64.9121 47.1035H65.0293C65.3874 46.459 65.8529 45.9479 66.4258 45.5703C67.0052 45.1927 67.627 45.0039 68.291 45.0039ZM76.1621 56.1953C74.4824 56.1953 73.1673 55.707 72.2168 54.7305C71.2728 53.7474 70.8008 52.3965 70.8008 50.6777C70.8008 48.9134 71.2402 47.5267 72.1191 46.5176C72.998 45.5085 74.2057 45.0039 75.7422 45.0039C77.168 45.0039 78.2943 45.4368 79.1211 46.3027C79.9479 47.1686 80.3613 48.36 80.3613 49.877V51.1172H73.1641C73.1966 52.1654 73.4798 52.9727 74.0137 53.5391C74.5475 54.099 75.2995 54.3789 76.2695 54.3789C76.9076 54.3789 77.5 54.3203 78.0469 54.2031C78.6003 54.0794 79.1927 53.8776 79.8242 53.5977V55.4629C79.2643 55.7298 78.6979 55.9186 78.125 56.0293C77.5521 56.14 76.8978 56.1953 76.1621 56.1953ZM75.7422 46.7422C75.013 46.7422 74.4271 46.9733 73.9844 47.4355C73.5482 47.8978 73.2878 48.5716 73.2031 49.457H78.1055C78.0924 48.5651 77.8776 47.8913 77.4609 47.4355C77.0443 46.9733 76.4714 46.7422 75.7422 46.7422Z" fill="#094067"/>
</svg>
