<svg width="175" height="123" viewBox="0 0 175 123" fill="none" xmlns="http://www.w3.org/2000/svg">
<path d="M1.73385 51.8866C-7.08235 83.478 19.6919 107.085 37.6767 117.055C40.6583 118.708 43.9496 119.763 47.3132 120.318C136.829 135.087 197.886 58.1811 165.234 38.8865C143.234 25.8864 117.734 9.38658 96.7339 1.88658C75.7339 -5.61342 13.7339 8.88658 1.73385 51.8866Z" fill="#C4C267"/>
<path d="M56.201 94.9949H103.797C105.675 94.9949 107.197 93.4728 107.197 91.5951V53.6959L108.64 54.7158C110.176 55.7964 112.297 55.4273 113.377 53.8914C114.458 52.3555 114.089 50.2344 112.553 49.1539L101.531 41.3922V30.3997C101.531 28.5221 100.009 27 98.1312 27H93.5982C91.7206 27 90.1985 28.5221 90.1985 30.3997V33.4198L81.9552 27.6188C80.7804 26.7965 79.2169 26.7965 78.0421 27.6188L47.4444 49.1505C46.3191 49.9417 45.7815 51.3331 46.0825 52.6754C46.3834 54.0177 47.4636 55.0463 48.819 55.2813C49.0141 55.3147 49.2116 55.3314 49.4095 55.3312C50.1076 55.331 50.7886 55.1144 51.3587 54.7113L52.8013 53.6959V91.5951C52.8013 93.4728 54.3234 94.9949 56.201 94.9949ZM92.465 30.3997C92.465 29.7739 92.9723 29.2665 93.5982 29.2665H98.1312C98.7571 29.2665 99.2645 29.7739 99.2645 30.3997V39.7989L92.465 35.0143V30.3997ZM50.0532 52.8585C49.5413 53.2063 48.845 53.0791 48.4891 52.5728C48.1332 52.0665 48.2493 51.3683 48.7499 51.0045L79.3476 29.4727C79.7394 29.1991 80.2602 29.1991 80.652 29.4727L111.25 51.0045C111.591 51.2335 111.781 51.6292 111.747 52.0386C111.714 52.4481 111.461 52.8072 111.087 52.9772C110.713 53.1471 110.276 53.1012 109.945 52.8573L80.652 32.2447C80.2605 31.9688 79.7379 31.9688 79.3465 32.2447L50.0532 52.8585ZM55.0678 52.1014L79.9992 34.5565L104.931 52.1014V91.5951C104.931 92.221 104.423 92.7284 103.797 92.7284H56.201C55.5751 92.7284 55.0678 92.221 55.0678 91.5951V52.1014Z" fill="white"/>
<path d="M57.3342 63.4906C57.3342 72.4953 63.1761 84.9475 79.6422 90.4075C79.874 90.4844 80.1244 90.4844 80.3562 90.4075C96.8223 84.9441 102.664 72.4919 102.664 63.4906C102.664 55.1045 97.4376 48.5317 90.765 48.5317C86.7378 48.5522 82.8767 50.1393 79.9992 52.957C77.1217 50.1393 73.2606 48.5522 69.2333 48.5317C62.5608 48.5317 57.3342 55.1045 57.3342 63.4906ZM69.2333 50.7982C73.0155 50.8481 76.6012 52.4911 79.1085 55.3232C79.323 55.5954 79.6503 55.7545 79.9969 55.755C80.3439 55.7549 80.6717 55.5958 80.8865 55.3232C83.3946 52.4903 86.9817 50.8471 90.765 50.7982C96.1672 50.7982 100.398 56.3715 100.398 63.4906C100.398 71.676 95.0453 82.9983 79.9992 88.1364C64.9531 82.9949 59.6007 71.6726 59.6007 63.4906C59.6007 56.3715 63.8311 50.7982 69.2333 50.7982Z" fill="white"/>
<path d="M86.1483 71.6499C84.9096 69.4299 83.3696 66.6636 79.9993 66.6636C76.629 66.6636 75.0889 69.4299 73.8503 71.6499C73.4518 72.4281 72.9841 73.1688 72.453 73.8632C70.9669 75.6366 70.5559 78.0751 71.3787 80.2377C72.0701 81.7191 73.5965 82.6276 75.2283 82.5291C76.1965 82.5054 77.1499 82.2857 78.0308 81.8832C78.6476 81.5901 79.317 81.4243 79.9993 81.3959C80.6815 81.4243 81.351 81.5901 81.9677 81.8832C82.8486 82.2857 83.802 82.5054 84.7703 82.5291C86.4025 82.6297 87.9304 81.7224 88.6233 80.2411C89.4461 78.0785 89.0351 75.64 87.549 73.8666C87.0165 73.1712 86.5477 72.4294 86.1483 71.6499ZM86.5642 79.2812C86.2355 79.9563 85.516 80.3499 84.7703 80.2626C84.088 80.2341 83.4185 80.0684 82.8018 79.7753C81.9209 79.3728 80.9675 79.153 79.9993 79.1294C79.031 79.153 78.0777 79.3728 77.1968 79.7753C76.58 80.0684 75.9105 80.2341 75.2283 80.2626C74.4833 80.3505 73.7641 79.9584 73.4344 79.2846C72.978 77.9242 73.2632 76.4243 74.1869 75.3262C74.8132 74.5223 75.3633 73.6619 75.8301 72.756C77.156 70.3762 78.0966 68.9301 79.9993 68.9301C81.902 68.9301 82.8426 70.375 84.1685 72.756C84.6353 73.6619 85.1854 74.5223 85.8117 75.3262C86.7354 76.4243 87.0205 77.9242 86.5642 79.2846V79.2812Z" fill="white"/>
<path d="M69.8669 61.742C70.3542 64.5604 72.4371 66.6059 74.6752 66.6059C74.8845 66.6061 75.0934 66.5882 75.2996 66.5526C76.5974 66.2916 77.6946 65.431 78.2574 64.2329C79.4653 61.6553 78.9358 58.5979 76.9315 56.5766C76.0179 55.6065 74.6781 55.16 73.3651 55.3881C72.0521 55.6162 70.9414 56.4884 70.4085 57.7099C69.8001 58.961 69.6102 60.3746 69.8669 61.742ZM72.4269 58.7309C72.6736 58.1743 73.1632 57.7625 73.7539 57.6147C73.836 57.6019 73.919 57.5962 74.0021 57.5977C74.5224 57.63 75.0124 57.8536 75.3778 58.2255C76.6479 59.5559 76.9881 61.5218 76.2391 63.2016C75.993 63.7585 75.5038 64.1708 74.9132 64.319C73.7074 64.5343 72.4144 63.1721 72.0994 61.3555C71.929 60.468 72.0436 59.5494 72.4269 58.7309Z" fill="white"/>
<path d="M71.9429 68.8406C71.3846 66.5613 69.0958 65.1559 66.8105 65.689C65.7435 66.0313 64.8881 66.8372 64.4828 67.8819C63.6342 70.0636 64.4039 72.5424 66.339 73.8597C66.9631 74.2757 67.6947 74.5009 68.4446 74.508C68.8024 74.5079 69.1581 74.4536 69.4997 74.347C70.5672 74.0051 71.4231 73.1992 71.8285 72.1542C72.2516 71.0968 72.2921 69.9247 71.9429 68.8406ZM69.7354 71.285C69.5971 71.714 69.2586 72.0489 68.8281 72.1826C68.3977 72.3163 67.929 72.2322 67.572 71.957C66.5553 71.2351 66.1469 69.9223 66.5747 68.7511C66.7274 68.3313 67.0601 68.002 67.4813 67.8535C67.602 67.8158 67.7277 67.7967 67.8542 67.7969C68.7918 67.91 69.5602 68.5943 69.7807 69.5126C69.9691 70.0911 69.9531 70.7168 69.7354 71.285Z" fill="white"/>
<path d="M84.7385 66.5503C84.9443 66.5859 85.1529 66.6038 85.3618 66.6036C87.6011 66.6036 89.6829 64.5569 90.1713 61.7397C90.4267 60.3736 90.2377 58.9617 89.6319 57.711C89.0687 56.5127 87.971 55.6521 86.6729 55.3912C84.2161 54.9708 81.7728 57.1228 81.2402 60.2019C80.7075 63.2809 82.2748 66.1253 84.7385 66.5503ZM86.0349 57.5977C86.1185 57.5975 86.2019 57.6047 86.2842 57.6192C86.8746 57.767 87.3639 58.1789 87.6101 58.7354C87.9924 59.5525 88.107 60.4694 87.9376 61.3555C87.6237 63.1687 86.333 64.5286 85.1249 64.3189C83.9169 64.1093 83.1565 62.3981 83.4704 60.5792C83.7639 58.8918 84.9017 57.5977 86.0349 57.5977Z" fill="white"/>
<path d="M93.188 65.6891C90.9026 65.1553 88.6134 66.561 88.0555 68.8407C87.706 69.9247 87.7461 71.0967 88.1688 72.1543C88.5743 73.1993 89.4302 74.0052 90.4977 74.3471C90.8392 74.4537 91.1949 74.508 91.5527 74.5081C92.3026 74.501 93.0343 74.2758 93.6583 73.8598C95.5935 72.5425 96.3632 70.0637 95.5146 67.882C95.1095 66.8375 94.2546 66.0317 93.188 65.6891ZM93.4668 70.5224C93.2947 71.1058 92.9274 71.6123 92.4265 71.9571C92.0694 72.2323 91.6008 72.3164 91.1703 72.1827C90.7398 72.049 90.4014 71.7141 90.2631 71.2851C90.0464 70.717 90.0312 70.0918 90.22 69.5138C90.5849 68.3398 91.6343 67.5873 92.5149 67.8536C92.9361 68.0021 93.2688 68.3314 93.4215 68.7512C93.6389 69.319 93.6549 69.9442 93.4668 70.5224Z" fill="white"/>
</svg>
