<svg width="163" height="133" viewBox="0 0 163 133" fill="none" xmlns="http://www.w3.org/2000/svg">
<path d="M3.50868 71.3029C3.50868 71.3029 63.1044 11.0001 110.009 5.30294C154.009 -13.6971 169.009 22.8029 159.509 44.8029C150.009 66.8029 152.509 95.3029 147.009 110.803C141.509 126.303 94.5087 135.803 39.0087 131.803C-16.4913 127.803 3.50868 71.3029 3.50868 71.3029Z" fill="#90B4CE"/>
<path d="M103.487 89.027C102.818 89.027 102.276 89.5691 102.276 90.2379C102.276 99.3651 94.8502 106.791 85.723 106.791C76.5958 106.791 69.1704 99.3651 69.1704 90.2379V87.6968L75.8935 75.3305C80.7219 71.9571 83.0176 65.8807 82.288 58.4615C83.9968 57.8992 85.2345 56.2891 85.2345 54.3944C85.2345 52.0337 83.314 50.1132 80.9533 50.1132C78.5926 50.1132 76.6721 52.0337 76.6721 54.3944C76.6721 56.3779 78.0282 58.0502 79.8617 58.5342C80.5686 65.3013 78.5206 70.7511 74.1717 73.5731C70.3682 76.0412 65.3991 76.0722 61.5125 73.652C57.0141 70.8506 54.8104 65.3703 55.3917 58.5288C57.2157 58.0385 58.5628 56.3711 58.5628 54.3944C58.5628 52.0337 56.6422 50.1132 54.2816 50.1132C51.9209 50.1132 50 52.0336 50 54.3943C50 56.2965 51.2474 57.9121 52.9667 58.4683C52.3489 66.1812 54.9611 72.4236 60.2296 75.7061L66.7484 87.6967V90.2379C66.7484 95.2864 68.7275 100.046 72.3212 103.64C75.9148 107.233 80.6743 109.212 85.7229 109.212C90.7715 109.212 95.5311 107.233 99.1247 103.64C102.718 100.046 104.697 95.2866 104.697 90.2379C104.697 89.5691 104.155 89.027 103.487 89.027ZM79.0937 54.3943C79.0937 53.369 79.9278 52.5349 80.9531 52.5349C81.9784 52.5349 82.8124 53.369 82.8124 54.3943C82.8124 55.4196 81.9784 56.2538 80.9531 56.2538C79.9278 56.2538 79.0937 55.4196 79.0937 54.3943ZM52.4218 54.3943C52.4218 53.369 53.2559 52.5349 54.2812 52.5349C55.3065 52.5349 56.1406 53.369 56.1406 54.3943C56.1406 55.4196 55.3065 56.2538 54.2812 56.2538C53.2559 56.2538 52.4218 55.4196 52.4218 54.3943ZM63.8614 77.3155C65.1476 77.6821 66.4739 77.866 67.7988 77.8658C69.2614 77.8658 70.7217 77.6405 72.1237 77.194L67.9595 84.8536L63.8614 77.3155Z" fill="white"/>
</svg>
