<svg width="176" height="132" viewBox="0 0 176 132" fill="none" xmlns="http://www.w3.org/2000/svg">
<path d="M9.57594 101.049C-19.2241 70.6489 23.576 48.5488 50.5759 33.0489C99.4206 -5.95107 129.076 -6.45107 134.576 11.0489C140.076 28.5489 195.076 59.0489 168.576 101.049C142.076 143.049 45.5759 139.049 9.57594 101.049Z" fill="#FCA158"/>
<path d="M80.3456 56.0573C80.2094 58.4838 82.343 60.4646 84.798 60.4646H85.1116C80.8984 64.4175 71.3147 73.7886 69.4686 78.8991C68.6338 81.2103 68.4642 83.6222 68.9308 85.8611H58.0956C55.2806 85.8664 52.9947 88.1699 53 90.9565C53.0055 93.7397 55.2945 96.0001 58.1078 96C58.1109 96 58.1147 96 58.118 96H108.973C111.428 96 113.425 94.0229 113.425 91.5927V62.6202C113.425 62.599 113.423 62.5783 113.422 62.5573C114.028 61.9076 114.579 61.2078 115.069 60.4647H118.541C120.996 60.4647 123.13 58.4838 122.994 56.0574C122.791 52.4479 121.852 45.2785 121.376 41.6854C121.061 39.3086 119.355 37.3507 116.924 37.3507H112.504C111.581 37.3507 110.694 37.6302 109.938 38.1587C109.906 38.1812 109.875 38.2054 109.846 38.2305C107.452 36.815 104.655 36 101.67 36C98.684 36 95.8873 36.8148 93.4933 38.2303C93.4639 38.2054 93.4333 38.1812 93.401 38.1587C92.6452 37.6302 91.7578 37.3507 90.8352 37.3507H86.4151C83.9845 37.3507 82.2204 39.3018 81.9632 41.6854C81.5756 45.2785 80.5481 52.4477 80.3456 56.0573ZM115.227 51.8316C115.227 53.903 114.75 55.8663 113.9 57.6195C113.633 56.7059 113.241 55.9056 112.718 55.2084C111.56 53.6675 109.814 52.6455 107.399 52.1C107.405 51.9951 107.409 51.8897 107.409 51.7835C107.409 48.4768 104.478 48.4768 103.375 48.4768C103.113 48.4768 102.839 48.4822 102.556 48.488C101.983 48.4994 101.356 48.4994 100.784 48.488C100.501 48.4822 100.227 48.4768 99.9646 48.4768C98.8613 48.4768 95.9308 48.4768 95.9308 51.7835C95.9308 51.9025 95.9358 52.0204 95.9431 52.1376C93.5543 52.6991 91.8315 53.7288 90.6966 55.2704C90.1665 55.9904 89.7745 56.8204 89.5164 57.7732C88.6185 55.9811 88.1127 53.9639 88.1127 51.8317C88.1127 44.4321 94.1944 38.4121 101.67 38.4121C109.145 38.4119 115.227 44.432 115.227 51.8316ZM100.451 57.3339V61.1262C100.451 61.7922 100.997 62.3321 101.67 62.3321C102.342 62.3321 102.888 61.7922 102.888 61.1262V57.3339C104.562 56.9742 105.966 55.8893 106.746 54.4291C111.088 55.3763 111.838 57.9397 111.883 60.6461C109.396 63.4663 105.74 65.2512 101.67 65.2512C97.6649 65.2512 94.0607 63.5228 91.5766 60.7807C91.6 58.0569 92.2876 55.4482 96.6104 54.4618C97.3937 55.9056 98.7894 56.9766 100.451 57.3339ZM101.67 55.0521C99.8489 55.0521 98.3674 53.5857 98.3674 51.7835C98.3674 51.0606 98.3674 50.8888 99.9646 50.8888C100.211 50.8888 100.468 50.894 100.734 50.8994C101.339 50.9115 102.001 50.9115 102.605 50.8994C102.871 50.894 103.129 50.8888 103.375 50.8888C104.972 50.8888 104.972 51.0606 104.972 51.7835C104.972 53.5857 103.491 55.0521 101.67 55.0521ZM84.3993 41.7579C84.5122 40.6633 85.3036 39.7626 86.4151 39.7626H90.8352C90.9838 39.7626 91.1306 39.7795 91.2733 39.8111C87.8493 42.7171 85.6759 47.0275 85.6759 51.8317C85.6759 54.0392 86.1353 56.1421 86.9633 58.0529H84.7982C83.7067 58.0529 82.7389 57.1895 82.7831 56.117C82.9319 52.5079 84.0362 45.2785 84.3993 41.7579ZM73.5449 89.7783C73.3204 89.5222 73.1083 89.2551 72.9104 88.977C70.9879 86.2756 70.5804 82.985 71.763 79.7113C71.9194 79.2784 72.1453 78.8047 72.4268 78.3003C79.7529 78.3744 79.7533 80.9894 79.7533 81.8569C79.7533 84.9242 77.1739 89.4096 73.5449 89.7783ZM58.1104 93.5656C58.1085 93.5656 58.1069 93.5656 58.1051 93.5656C56.6361 93.5656 55.4395 92.4065 55.4367 90.952C55.4338 89.4951 56.6287 88.2737 58.1052 88.2709H69.7055C70.0331 89.0106 70.437 89.6897 70.9184 90.366C71.7983 91.6023 72.8968 92.708 74.1529 93.5656H58.1104ZM103.226 93.5881H96.3179C96.7048 92.935 96.9278 92.1759 96.9278 91.3658V82.2389C96.9301 82.2091 96.9311 82.179 96.9311 82.1487C96.9311 81.0004 97.8731 79.9932 98.947 79.9932H100.726C101.819 79.9932 102.742 80.9437 102.742 82.0686V91.5928C102.742 92.3107 102.917 92.9885 103.226 93.5881ZM80.781 93.4872C78.9704 93.2605 77.232 92.6348 75.7838 91.7015C79.7654 90.1384 82.19 85.3459 82.19 81.8569C82.19 79.6077 81.0059 77.9043 78.7659 76.9311C77.5196 76.3896 75.9387 76.0635 73.97 75.9416C78.243 70.1047 86.738 62.2423 88.4266 60.6993C91.3057 64.8985 96.1674 67.663 101.669 67.663C105.144 67.663 108.363 66.56 110.989 64.69V91.5925C110.989 92.6928 110.084 93.5879 108.973 93.5879H107.573H107.194C106.083 93.5879 105.178 92.6928 105.178 91.5925V82.0683C105.178 79.5941 103.181 77.581 100.726 77.581H98.947C96.5677 77.581 94.5526 79.6134 94.4957 82.043C94.4926 82.0777 94.4911 82.1129 94.4911 82.1484V91.3655C94.4911 92.4658 93.5869 93.3609 92.4753 93.3609H90.6966C89.585 93.3609 88.6806 92.4658 88.6806 91.3655V72.7042C88.6806 72.0382 88.1351 71.4982 87.4623 71.4982C86.7895 71.4982 86.244 72.0382 86.244 72.7042V91.3655C86.244 92.1757 86.467 92.9349 86.8538 93.5878H82.3845C81.858 93.5881 81.2921 93.5512 80.781 93.4872ZM120.556 56.1167C120.6 57.1892 119.633 58.0527 118.541 58.0527H116.376C117.204 56.1418 117.663 54.0389 117.663 51.8314C117.663 47.0274 115.49 42.7168 112.066 39.811C112.209 39.7792 112.355 39.7623 112.504 39.7623H116.924C118.036 39.7623 118.807 40.6653 118.94 41.7576C119.368 45.2785 120.407 52.5079 120.556 56.1167Z" fill="white"/>
</svg>
