<svg width="180" height="115" viewBox="0 0 180 115" fill="none" xmlns="http://www.w3.org/2000/svg">
<path d="M25.8994 4.27999C43.1827 -4.77316 71.6423 2.76852 85.0771 6.55785C89.2798 7.74322 93.6081 8.29084 97.9744 8.23553C148.009 7.60182 188.42 1.11221 177.399 54.7797C166.381 108.437 71.3994 131.5 25.8994 100C-19.6006 68.5 4.89941 15.28 25.8994 4.27999Z" fill="#3DA9FC"/>
<path d="M82.6072 42.3422C83.3395 42.3422 83.9354 41.3861 83.9354 40.2109C83.9354 39.0357 83.3395 38.0796 82.6072 38.0796C81.8749 38.0796 81.2792 39.0357 81.2792 40.2109C81.2792 41.3861 81.8749 42.3422 82.6072 42.3422Z" fill="white"/>
<path d="M95.8968 42.3422C96.6291 42.3422 97.2248 41.3861 97.2248 40.2109C97.2248 39.0357 96.6291 38.0796 95.8968 38.0796C95.1645 38.0796 94.5687 39.0357 94.5687 40.2109C94.5687 41.3861 95.1645 42.3422 95.8968 42.3422Z" fill="white"/>
<path d="M112.459 60.6737C112.778 60.0287 112.948 59.3144 112.948 58.5863C112.948 56.9149 112.043 55.3689 110.632 54.5299C110.679 54.3007 110.702 54.0659 110.702 53.8268C110.702 51.9879 109.277 50.4756 107.473 50.3361C107.041 48.6491 105.716 47.3448 104.023 46.9398V41.2874C104.694 41.0985 105.317 40.7398 105.83 40.2268L108.455 37.6022C110.071 35.9858 110.071 33.356 108.455 31.7398L102.929 26.2145C102.146 25.4316 101.105 25.0003 99.998 25.0003C98.8907 25.0003 97.8497 25.4315 97.0667 26.2145C96.4903 26.7909 96.1104 27.5174 95.947 28.2902C95.5515 28.2393 95.1524 28.2126 94.7531 28.2126H83.751C83.3517 28.2126 82.9526 28.2392 82.5572 28.2902C82.3939 27.5171 82.0138 26.7903 81.4372 26.2136C80.6533 25.4309 79.6122 25 78.5057 25C77.4 25 76.3593 25.4309 75.5751 26.214L70.0489 31.74C68.4341 33.3561 68.4341 35.9858 70.0493 37.6024L72.6743 40.2263C73.1929 40.7451 73.818 41.0975 74.4812 41.2837V46.9396C72.7874 47.3443 71.4622 48.6487 71.0305 50.3361C69.2266 50.4751 67.8011 51.9877 67.8011 53.8268C67.8011 54.0654 67.8247 54.3002 67.8717 54.5298C66.4611 55.3685 65.5558 56.9147 65.5558 58.5863C65.5558 59.3159 65.7266 60.0309 66.0455 60.6762C65.0227 61.2624 64.3317 62.364 64.3317 63.6246C64.3317 64.5336 64.6854 65.387 65.327 66.0272C65.8223 66.5226 66.4445 66.8451 67.1206 66.9667L69.8675 75.06C71.1167 78.7404 74.5675 81.2132 78.4541 81.2132H100.05C103.936 81.2132 107.387 78.7404 108.636 75.0598L111.383 66.9658C112.967 66.6779 114.171 65.2897 114.171 63.6246C114.171 62.7165 113.818 61.8634 113.176 61.2213C112.959 61.0048 112.718 60.822 112.459 60.6737ZM98.2313 27.3789C98.7032 26.907 99.3307 26.6471 99.998 26.6471C100.665 26.6471 101.293 26.907 101.765 27.3789L107.29 32.9041C108.264 33.8783 108.264 35.4633 107.29 36.4375L104.665 39.0621C104.056 39.6715 103.19 39.9222 102.349 39.7327C101.509 39.5431 100.834 38.9452 100.545 38.1331L97.644 29.9833C97.3225 29.0796 97.5529 28.0573 98.2313 27.3789ZM95.9327 29.951C95.9714 30.148 96.0243 30.3434 96.0927 30.5356L98.9935 38.6854C99.4729 40.0326 100.592 41.0248 101.987 41.3393C102.117 41.3685 102.246 41.3899 102.376 41.4066V47.4608C102.376 49.9165 101.198 52.1818 99.2737 53.5998C99.2743 53.5656 99.2762 53.5316 99.2762 53.4974V48.6446C99.2762 45.8309 97.1083 43.5154 94.355 43.2766C93.9393 42.4283 93.1544 41.7931 92.2111 41.5804V29.8594H94.7531C95.1484 29.8594 95.5431 29.8907 95.9327 29.951ZM90.0756 53.4975C90.0756 53.0427 89.7069 52.674 89.2521 52.674C88.7974 52.674 88.4287 53.0427 88.4287 53.4975C88.4287 54.5057 88.0357 55.4543 87.3231 56.1679C86.6088 56.8813 85.6601 57.2743 84.6519 57.2743C82.5693 57.2743 80.875 55.58 80.875 53.4975V48.6447C80.875 46.846 82.1506 45.3401 83.8445 44.9827C84.0024 46.5449 85.3029 47.7748 86.8951 47.8211V48.3865C86.8951 49.6861 87.9524 50.7433 89.252 50.7433C90.5515 50.7433 91.6088 49.6861 91.6088 48.3865V47.8211C93.2009 47.7748 94.5015 46.545 94.6595 44.9828C96.3537 45.3404 97.6292 46.8462 97.6292 48.6447V53.4975C97.6292 54.5057 97.2364 55.4544 96.5237 56.1679C95.8093 56.8813 94.8607 57.2743 93.8525 57.2743C91.7699 57.2743 90.0756 55.58 90.0756 53.4975ZM90.3441 57.63C89.9904 57.7231 89.6242 57.7735 89.2516 57.7735C88.8803 57.7735 88.5152 57.7233 88.1622 57.6306C88.2738 57.5356 88.3829 57.4371 88.4876 57.3324C88.782 57.0377 89.0383 56.7152 89.2541 56.3708C89.5512 56.8447 89.9198 57.2692 90.3441 57.63ZM86.9883 43.1492H87.1159H91.3876H91.5156C92.35 43.1492 93.0287 43.828 93.0287 44.6623C93.0287 45.4966 92.3499 46.1755 91.5156 46.1755H90.7854C90.3306 46.1755 89.9619 46.5442 89.9619 46.9989V48.3862C89.9619 48.7778 89.6434 49.0963 89.252 49.0963C88.8605 49.0963 88.542 48.7778 88.542 48.3862V46.9989C88.542 46.5442 88.1733 46.1755 87.7186 46.1755H86.9884C86.154 46.1755 85.4752 45.4966 85.4752 44.6623C85.4752 43.828 86.154 43.1492 86.9883 43.1492ZM90.5641 29.8594V41.5023H87.9394V29.8594H90.5641ZM71.2141 36.438C70.2405 35.4637 70.2405 33.8783 71.2138 32.9042L76.7392 27.379C77.212 26.9069 77.8394 26.6469 78.5057 26.6469C79.1728 26.6469 79.8006 26.9069 80.2731 27.3784C80.951 28.0565 81.1815 29.0789 80.8601 29.9829L78.5117 36.5813C78.3592 37.0098 78.5829 37.4808 79.0113 37.6333C79.4393 37.7855 79.9106 37.5621 80.0632 37.1336L82.4118 30.5348C82.48 30.3429 82.5328 30.1478 82.5713 29.9512C82.961 29.8907 83.3558 29.8595 83.7509 29.8595H86.2925V41.5806C85.3494 41.7935 84.5647 42.4286 84.149 43.2768C81.396 43.5152 79.2281 45.8309 79.2281 48.6448V53.4976C79.2281 53.5318 79.23 53.5655 79.2307 53.5997C77.3064 52.1818 76.1282 49.9165 76.1282 47.461V41.4069C76.9337 41.306 77.7168 40.9698 78.3652 40.3936C78.7052 40.0916 78.736 39.5712 78.4339 39.2312C78.1319 38.8911 77.6114 38.8604 77.2715 39.1624C76.4042 39.933 74.8831 40.106 73.8387 39.0616L71.2141 36.438ZM67.2027 58.5863C67.2027 57.3266 67.993 56.1764 69.1693 55.7241C69.3822 55.6422 69.5516 55.4758 69.6372 55.2643C69.7228 55.0529 69.7167 54.8154 69.6205 54.6086C69.5061 54.3623 69.4481 54.0993 69.4481 53.827C69.4481 52.8045 70.2799 51.9726 71.3024 51.9726C71.3997 51.9726 71.4982 51.9801 71.595 51.995C71.82 52.0293 72.0495 51.9692 72.2285 51.8284C72.4075 51.6878 72.5204 51.4792 72.54 51.2523C72.6444 50.0514 73.4624 49.0365 74.5577 48.6373C74.9538 51.7399 76.897 54.4596 79.7545 55.826C80.6273 57.6546 82.4944 58.9213 84.6521 58.9213C85.2328 58.9213 85.7992 58.829 86.3361 58.6543C87.223 59.1567 88.2224 59.4205 89.2517 59.4205C90.283 59.4205 91.2834 59.1561 92.1702 58.6527C92.7002 58.8261 93.2654 58.9212 93.8526 58.9212C95.3002 58.9212 96.6622 58.3573 97.6884 57.3325C98.1337 56.8866 98.4917 56.377 98.7545 55.8245C101.611 54.4567 103.553 51.7362 103.947 48.633C105.053 49.0255 105.858 50.029 105.965 51.2527C105.984 51.4796 106.097 51.6882 106.277 51.8287C106.456 51.9693 106.685 52.0293 106.911 51.9946C107.006 51.9799 107.104 51.9725 107.201 51.9725C108.224 51.9725 109.056 52.8044 109.056 53.8268C109.056 54.1008 108.998 54.3631 108.884 54.6065C108.787 54.8134 108.781 55.0513 108.866 55.2632C108.951 55.4751 109.121 55.6421 109.334 55.7241C110.511 56.1767 111.302 57.3269 111.302 58.5863C111.302 59.1706 111.131 59.7401 110.82 60.2288C110.805 60.2286 110.79 60.2277 110.775 60.2277H104.817C104.564 58.9189 103.411 57.927 102.029 57.927H98.1752C96.7937 57.927 95.6402 58.9189 95.3877 60.2277H83.1168C82.8642 58.9189 81.7107 57.927 80.3293 57.927H76.4751C75.0936 57.927 73.9402 58.9189 73.6877 60.2277H67.7297C67.714 60.2277 67.6985 60.2287 67.6828 60.2289C67.3728 59.7408 67.2027 59.1713 67.2027 58.5863ZM103.221 60.7665V61.7738C103.221 62.0587 103.001 62.3034 102.74 62.3081C102.607 62.3106 102.481 62.2607 102.386 62.1676C102.292 62.0745 102.239 61.9501 102.239 61.8172C102.239 61.3625 101.871 60.9938 101.416 60.9938C100.961 60.9938 100.592 61.3625 100.592 61.8172C100.592 62.088 100.372 62.3081 100.102 62.3081C99.8309 62.3081 99.6106 62.0879 99.6106 61.8172C99.6106 61.3625 99.2421 60.9938 98.7872 60.9938C98.3323 60.9938 97.9637 61.3625 97.9637 61.8172C97.9637 61.9501 97.9115 62.0745 97.8167 62.1676C97.7221 62.2606 97.5958 62.3106 97.4632 62.3081C97.2023 62.3034 96.9819 62.0587 96.9819 61.7738V60.7665C96.9819 60.1089 97.5169 59.574 98.1744 59.574H102.029C102.686 59.574 103.221 60.1089 103.221 60.7665ZM81.5218 60.7665V61.7738C81.5218 62.0587 81.3014 62.3034 81.0405 62.3081C80.9083 62.3109 80.7818 62.2607 80.6871 62.1676C80.5922 62.0745 80.5401 61.9501 80.5401 61.8172C80.5401 61.3625 80.1714 60.9938 79.7166 60.9938C79.2619 60.9938 78.8932 61.3625 78.8932 61.8172C78.8932 62.088 78.673 62.3081 78.4023 62.3081C78.1317 62.3081 77.9114 62.0879 77.9114 61.8172C77.9114 61.3625 77.5428 60.9938 77.088 60.9938C76.6332 60.9938 76.2646 61.3625 76.2646 61.8172C76.2646 61.9501 76.2123 62.0745 76.1176 62.1676C76.0228 62.2606 75.8947 62.3106 75.764 62.3081C75.5032 62.3034 75.2827 62.0587 75.2827 61.7738V60.7665C75.2827 60.1089 75.8177 59.574 76.4753 59.574H80.3294C80.9868 59.574 81.5218 60.1089 81.5218 60.7665ZM110.775 65.3747H105.662C105.207 65.3747 104.838 65.7434 104.838 66.1981C104.838 66.6529 105.207 67.0216 105.662 67.0216H109.625L107.077 74.5305C106.054 77.5426 103.231 79.5663 100.05 79.5663H78.4541C75.2733 79.5663 72.4493 77.5426 71.4269 74.5305L68.8783 67.0216H102.368C102.823 67.0216 103.191 66.6529 103.191 66.1981C103.191 65.7434 102.823 65.3747 102.368 65.3747H67.7297C67.2614 65.3747 66.8217 65.1929 66.4909 64.862C66.1606 64.5323 65.9785 64.0929 65.9785 63.6246C65.9785 62.6597 66.7641 61.8745 67.7297 61.8745H73.6408C73.6928 63.01 74.6102 63.9342 75.7338 63.9548C76.2309 63.963 76.7037 63.8048 77.0889 63.503C77.4515 63.7861 77.9076 63.9551 78.4022 63.9551C78.8968 63.9551 79.353 63.7861 79.7156 63.503C80.1006 63.8048 80.573 63.9631 81.0706 63.9548C82.1942 63.9342 83.1117 63.0101 83.1638 61.8745H95.3403C95.3923 63.01 96.3098 63.9342 97.4335 63.9548C97.9245 63.9633 98.4032 63.8049 98.7884 63.503C99.151 63.7861 99.6071 63.9551 100.102 63.9551C100.597 63.9551 101.053 63.7861 101.415 63.503C101.8 63.8048 102.273 63.9631 102.77 63.9548C103.894 63.9342 104.811 63.0101 104.863 61.8745H110.775C111.242 61.8745 111.682 62.0566 112.013 62.3865C112.343 62.7168 112.525 63.1565 112.525 63.6246C112.525 64.5896 111.739 65.3747 110.775 65.3747Z" fill="white"/>
<path d="M112.376 42.8759C110.612 42.8759 109.177 44.3108 109.177 46.0746C109.177 47.8384 110.612 49.2734 112.376 49.2734C114.14 49.2734 115.575 47.8384 115.575 46.0746C115.575 44.3108 114.14 42.8759 112.376 42.8759ZM112.376 47.6265C111.52 47.6265 110.824 46.9303 110.824 46.0746C110.824 45.2189 111.52 44.5227 112.376 44.5227C113.232 44.5227 113.928 45.2189 113.928 46.0746C113.928 46.9303 113.232 47.6265 112.376 47.6265Z" fill="white"/>
<path d="M114.649 32.2776C112.249 32.2776 110.297 34.2297 110.297 36.629C110.297 39.0282 112.249 40.9803 114.649 40.9803C117.048 40.9803 119 39.0283 119 36.629C119 34.2296 117.048 32.2776 114.649 32.2776ZM114.649 39.3336C113.157 39.3336 111.944 38.1204 111.944 36.6291C111.944 35.1378 113.157 33.9246 114.649 33.9246C116.14 33.9246 117.353 35.1379 117.353 36.6291C117.353 38.1202 116.14 39.3336 114.649 39.3336Z" fill="white"/>
<path d="M70.7075 42.7549C70.7075 40.63 68.9787 38.9011 66.8537 38.9011C64.7287 38.9011 63 40.63 63 42.7549C63 44.8798 64.7288 46.6087 66.8538 46.6087C68.9788 46.6087 70.7075 44.8799 70.7075 42.7549ZM64.6469 42.7549C64.6469 41.5381 65.6369 40.548 66.8538 40.548C68.0707 40.548 69.0607 41.538 69.0607 42.7549C69.0607 43.9718 68.0707 44.9618 66.8538 44.9618C65.6369 44.9618 64.6469 43.9718 64.6469 42.7549Z" fill="white"/>
</svg>
